<svg id="Calque_1" data-name="Calque 1" xmlns="http://www.w3.org/2000/svg" xmlns:xlink="http://www.w3.org/1999/xlink" viewBox="0 0 12.7 16.25"><defs><style>.cls-1{fill:none;}.cls-2{clip-path:url(#clip-path);}.cls-3{fill:#009fc2;}</style><clipPath id="clip-path" transform="translate(-5.65 -3.87)"><rect class="cls-1" width="24" height="24"/></clipPath></defs><g class="cls-2"><g class="cls-2"><path class="cls-3" d="M11.9,20.13a.42.42,0,0,1-.16,0l-.82-.36a8.78,8.78,0,0,1-5.27-8V7.49a.42.42,0,0,1,.2-.35l5.87-3.22a.46.46,0,0,1,.2,0,.37.37,0,0,1,.18,0l6,3.21a.44.44,0,0,1,.21.35V11.6A8.78,8.78,0,0,1,13,19.69l-.91.4a.34.34,0,0,1-.16,0M6.45,11.68A8,8,0,0,0,11.24,19l.66.29.76-.33a8,8,0,0,0,4.89-7.35V7.72l-5.63-3-5.47,3Z" transform="translate(-5.65 -3.87)"/><path class="cls-3" d="M11.06,14a.37.37,0,0,1-.3-.14L9.17,12a.41.41,0,0,1,0-.56.4.4,0,0,1,.57,0L11.11,13l3.4-2.76a.38.38,0,0,1,.25-.09.36.36,0,0,1,.3.15.38.38,0,0,1,.09.29.42.42,0,0,1-.14.27l-3.7,3a.38.38,0,0,1-.25.09" transform="translate(-5.65 -3.87)"/></g></g></svg>