<?xml version="1.0" encoding="UTF-8" standalone="no"?>
<svg
   xmlns:osb="http://www.openswatchbook.org/uri/2009/osb"
   xmlns:dc="http://purl.org/dc/elements/1.1/"
   xmlns:cc="http://creativecommons.org/ns#"
   xmlns:rdf="http://www.w3.org/1999/02/22-rdf-syntax-ns#"
   xmlns:svg="http://www.w3.org/2000/svg"
   xmlns="http://www.w3.org/2000/svg"
   xmlns:xlink="http://www.w3.org/1999/xlink"
   xmlns:sodipodi="http://sodipodi.sourceforge.net/DTD/sodipodi-0.dtd"
   xmlns:inkscape="http://www.inkscape.org/namespaces/inkscape"
   version="1.1"
   x="0px"
   y="0px"
   viewBox="-0.86 -0.55 276.821 145.85809"
   xml:space="preserve"
   id="svg939"
   sodipodi:docname="logo_squash_icone_test_white.svg"
   width="276.82101"
   height="145.85809"
   inkscape:version="1.0 (4035a4fb49, 2020-05-01)"><metadata
   id="metadata945"><rdf:RDF><cc:Work
       rdf:about=""><dc:format>image/svg+xml</dc:format><dc:type
         rdf:resource="http://purl.org/dc/dcmitype/StillImage" /></cc:Work></rdf:RDF></metadata><defs
   id="defs943"><linearGradient
     osb:paint="solid"
     id="linearGradient920"><stop
       id="stop918"
       offset="0"
       style="stop-color:#000000;stop-opacity:1;" /></linearGradient><linearGradient
     gradientUnits="userSpaceOnUse"
     y2="353.92866"
     x2="386.13725"
     y1="353.92866"
     x1="237.72097"
     id="linearGradient922"
     xlink:href="#linearGradient920"
     inkscape:collect="always" /></defs><sodipodi:namedview
   inkscape:document-rotation="0"
   pagecolor="#ffffff"
   bordercolor="#666666"
   borderopacity="1"
   objecttolerance="10"
   gridtolerance="10"
   guidetolerance="10"
   inkscape:pageopacity="0"
   inkscape:pageshadow="2"
   inkscape:window-width="1920"
   inkscape:window-height="1017"
   id="namedview941"
   showgrid="false"
   inkscape:zoom="0.87303567"
   inkscape:cx="62.52"
   inkscape:cy="-63.999611"
   inkscape:window-x="-8"
   inkscape:window-y="-8"
   inkscape:window-maximized="1"
   inkscape:current-layer="Icone_Couleur" />
<style
   type="text/css"
   id="style890">
	.st0{fill:#1C5B8D;}
	.st1{display:none;}
	.st2{display:inline;fill:#FFFFFF;}
	.st3{fill:#AAC5DE;}
	.st4{display:inline;fill:#5788BE;}
	.st5{display:inline;}
	.st6{fill:#5788BE;}
	.st7{fill:#FFFFFF;}
</style>
<g
   id="Repères_du_plan_de_travail"
   transform="translate(-235.12,-301.67604)">
</g>
<g
   style="stroke-width:1.0015748;stroke-miterlimit:4;stroke-dasharray:none"
   id="Icone_Couleur"
   transform="translate(-235.12,-301.67604)">
	<g
   style="display:inline;stroke-width:1.00157;stroke-miterlimit:4;stroke-dasharray:none;fill:#ffffff"
   id="Logo_Couleur">
		<g
   style="stroke-width:1.00157;stroke-miterlimit:4;stroke-dasharray:none;stroke:url(#linearGradient922);fill:#ffffff"
   id="Squ-sh_copy_2">
			<g
   style="stroke-width:1.00157;stroke-miterlimit:4;stroke-dasharray:none;stroke:url(#linearGradient922);fill:#ffffff"
   id="path3749_2_">
				<path
   style="stroke-width:1.00157;stroke-miterlimit:4;stroke-dasharray:none;stroke:url(#linearGradient922);fill:#ffffff"
   class="st0"
   d="m 349.02,330.46 c 3.8,-12.39 -5.56,-12.41 -24.53,-12.43 -18.99,-0.04 -32.02,-0.07 -36.17,13.51 -3.14,10.23 0.71,10.63 31.58,11.67 34.76,1.24 66.47,-0.47 56.22,32.96 -8.55,27.93 -41.12,30.63 -78.8,30.56 -40.51,-0.07 -67.71,-0.12 -57.41,-33.76 l 35.7,0.08 c -4.02,14.94 0.54,16.73 26.89,16.78 21.25,0.04 33.59,0.45 37.93,-13.71 2.77,-9.05 3.31,-13.57 -32.55,-14.03 -54.5,-0.69 -62.85,-5.82 -54.78,-32.17 8.68,-28.32 38.32,-28.86 76.58,-28.79 29.18,0.05 63.91,0.51 55.05,29.42 z"
   id="path893" />
			</g>
			<g
   style="stroke-width:1.00157;stroke-miterlimit:4;stroke-dasharray:none;stroke:url(#linearGradient922);fill:#ffffff"
   id="path3749_3_"
   class="st1">
				<path
   style="stroke-width:1.00157;stroke-miterlimit:4;stroke-dasharray:none;stroke:url(#linearGradient922);fill:#ffffff"
   class="st2"
   d="m 348.65,330.8 c 3.8,-12.39 -5.56,-12.41 -24.53,-12.43 -18.99,-0.04 -32.02,-0.07 -36.17,13.51 -3.14,10.23 0.71,10.63 31.58,11.67 34.76,1.24 66.47,-0.47 56.22,32.96 -8.55,27.93 -41.12,30.63 -78.8,30.56 -40.51,-0.07 -67.71,-0.12 -57.41,-33.76 l 35.7,0.08 c -4.02,14.94 0.54,16.73 26.89,16.78 21.25,0.04 33.59,0.45 37.93,-13.71 2.77,-9.05 3.31,-13.57 -32.55,-14.03 -54.5,-0.69 -62.85,-5.82 -54.78,-32.17 8.68,-28.32 38.32,-28.86 76.58,-28.79 29.18,0.05 63.91,0.51 55.05,29.42 z"
   id="path896" />
			</g>
		</g>
		<g
   style="stroke-width:1.00157;stroke-miterlimit:4;stroke-dasharray:none;fill:#ffffff"
   id="Vague_copy_2">
			<g
   style="stroke-width:1.00157;stroke-miterlimit:4;stroke-dasharray:none;fill:#ffffff"
   id="g902">
				<path
   style="stroke-width:1.00157;stroke-miterlimit:4;stroke-dasharray:none;fill:#ffffff"
   class="st3"
   d="m 234.47,445.84 c 10.28,0.04 27.88,1.29 38.15,1.13 8.32,-0.13 16.59,-0.47 24.85,-0.97 36.53,-2.23 72.57,-7.61 106.9,-15.95 15.92,-3.87 31.53,-8.39 46.48,-13.88 12.26,-4.49 24.22,-9.61 34.95,-15.87 7.96,-4.63 15.67,-9.98 20.73,-16.62 3.6,-4.76 5.85,-10.41 3.73,-16.11 -1.09,-2.94 -3.21,-5.64 -5.98,-7.93 -5.75,-4.78 -13.6,-7.91 -21.36,-10.19 -10.77,-3.18 -22.08,-4.99 -33.33,-6.18 -6.99,-0.74 -14,-1.23 -21,-1.55 -4.5,-0.2 -9.01,-0.33 -13.53,-0.41 -16.66,-0.33 -33.32,-0.42 -49.96,-0.44 l 16.35,1.36 c 11.68,0.75 17.51,1.51 28.98,3.85 9.15,1.88 18.5,4.41 26.47,8.61 5.87,3.1 11.12,7.19 12.91,12.48 0.21,0.61 0.41,1.24 0.53,1.87 1.22,5.93 -1.79,11.58 -5.92,16.23 -5.89,6.62 -14.05,11.97 -22.57,16.59 -11.32,6.17 -23.72,11.27 -36.48,15.71 -15.37,5.35 -31.38,9.8 -47.7,13.55 -34.29,7.87 -67.05,12.83 -103.41,14.66 z"
   id="path900" />
			</g>
			<g
   style="stroke-width:1.00157;stroke-miterlimit:4;stroke-dasharray:none;fill:#ffffff"
   class="st1"
   id="g906">
				<path
   style="stroke-width:1.00157;stroke-miterlimit:4;stroke-dasharray:none;fill:#ffffff"
   class="st2"
   d="m 234.47,445.84 c 10.28,0.04 27.88,1.29 38.15,1.13 8.32,-0.13 16.59,-0.47 24.85,-0.97 36.53,-2.23 72.57,-7.61 106.9,-15.95 15.92,-3.87 31.53,-8.39 46.48,-13.88 12.26,-4.49 24.22,-9.61 34.95,-15.87 7.96,-4.63 15.67,-9.98 20.73,-16.62 3.6,-4.76 5.85,-10.41 3.73,-16.11 -1.09,-2.94 -3.21,-5.64 -5.98,-7.93 -5.75,-4.78 -13.6,-7.91 -21.36,-10.19 -10.77,-3.18 -22.08,-4.99 -33.33,-6.18 -6.99,-0.74 -14,-1.23 -21,-1.55 -4.5,-0.2 -9.01,-0.33 -13.53,-0.41 -16.66,-0.33 -33.32,-0.42 -49.96,-0.44 l 16.35,1.36 c 11.68,0.75 17.51,1.51 28.98,3.85 9.15,1.88 18.5,4.41 26.47,8.61 5.87,3.1 11.12,7.19 12.91,12.48 0.21,0.61 0.41,1.24 0.53,1.87 1.22,5.93 -1.79,11.58 -5.92,16.23 -5.89,6.62 -14.05,11.97 -22.57,16.59 -11.32,6.17 -23.72,11.27 -36.48,15.71 -15.37,5.35 -31.38,9.8 -47.7,13.55 -34.29,7.87 -67.05,12.83 -103.41,14.66 z"
   id="path904" />
			</g>
		</g>
	</g>
	<g
   style="stroke-width:1.0015748;stroke-miterlimit:4;stroke-dasharray:none"
   id="Modules"
   class="st1">
		<g
   style="stroke-width:1.0015748;stroke-miterlimit:4;stroke-dasharray:none"
   id="Data_copy">
			<path
   style="stroke-width:1.0015748;stroke-miterlimit:4;stroke-dasharray:none"
   class="st4"
   d="m 150.7,473.95 c -0.52,0.11 -0.94,0.27 -1.26,0.49 -0.33,0.22 -0.56,0.48 -0.71,0.79 -0.15,0.31 -0.23,0.66 -0.23,1.06 0,0.68 0.21,1.21 0.64,1.59 0.43,0.39 1.02,0.58 1.78,0.58 0.64,0 1.23,-0.16 1.76,-0.49 0.54,-0.33 1.08,-0.8 1.63,-1.43 v -2.75 h -1.73 c -0.74,0 -1.37,0.05 -1.88,0.16 z m 30.38,0 c -0.52,0.11 -0.94,0.27 -1.26,0.49 -0.33,0.22 -0.56,0.48 -0.71,0.79 -0.15,0.31 -0.23,0.66 -0.23,1.06 0,0.68 0.21,1.21 0.64,1.59 0.43,0.39 1.02,0.58 1.78,0.58 0.64,0 1.23,-0.16 1.76,-0.49 0.54,-0.33 1.08,-0.8 1.63,-1.43 v -2.75 h -1.73 c -0.73,0 -1.36,0.05 -1.88,0.16 z m -50.06,-17.62 c -0.85,-1.04 -1.94,-1.85 -3.28,-2.43 -1.33,-0.58 -3.08,-0.87 -5.25,-0.87 h -3.57 v 23.63 h 3.68 c 1.93,0 3.56,-0.25 4.89,-0.75 1.32,-0.5 2.43,-1.26 3.32,-2.27 0.89,-1.01 1.55,-2.27 1.99,-3.77 0.44,-1.5 0.66,-3.26 0.66,-5.26 0,-1.65 -0.19,-3.18 -0.58,-4.59 -0.4,-1.42 -1.01,-2.65 -1.86,-3.69 z m 58.74,-15.19 h -79.5 c -3.87,0 -7,3.13 -7,7 v 34 c 0,3.87 3.13,7 7,7 h 79.5 c 3.87,0 7,-3.13 7,-7 v -34 c 0,-3.86 -3.14,-7 -7,-7 z m -50.26,31.4 c -0.83,2.27 -2.03,4.11 -3.58,5.55 -1.56,1.43 -3.45,2.48 -5.68,3.15 -2.23,0.67 -4.88,1.01 -7.96,1.01 h -8.3 c -0.59,0 -1.09,-0.17 -1.49,-0.52 -0.4,-0.35 -0.6,-0.92 -0.6,-1.71 v -30.29 c 0,-0.79 0.2,-1.36 0.6,-1.71 0.4,-0.35 0.9,-0.52 1.49,-0.52 h 8.92 c 3.1,0 5.72,0.36 7.88,1.09 2.16,0.73 3.97,1.8 5.45,3.22 1.48,1.42 2.6,3.18 3.37,5.28 0.77,2.1 1.15,4.52 1.15,7.28 0,3.18 -0.41,5.91 -1.25,8.17 z m 19.27,8.15 c 0,0.17 -0.06,0.3 -0.18,0.4 -0.12,0.1 -0.31,0.17 -0.57,0.21 -0.26,0.04 -0.64,0.06 -1.15,0.06 -0.54,0 -0.94,-0.02 -1.18,-0.06 -0.25,-0.04 -0.42,-0.11 -0.52,-0.21 -0.1,-0.1 -0.15,-0.23 -0.15,-0.4 v -1.28 c -0.66,0.71 -1.42,1.26 -2.27,1.66 -0.85,0.4 -1.79,0.6 -2.83,0.6 -0.86,0 -1.64,-0.11 -2.36,-0.33 -0.72,-0.22 -1.34,-0.55 -1.86,-0.99 -0.52,-0.44 -0.93,-0.98 -1.22,-1.63 -0.29,-0.65 -0.43,-1.41 -0.43,-2.28 0,-0.94 0.18,-1.75 0.55,-2.45 0.37,-0.69 0.92,-1.27 1.64,-1.72 0.73,-0.45 1.63,-0.79 2.72,-1 1.08,-0.22 2.34,-0.33 3.78,-0.33 h 1.57 v -0.97 c 0,-0.51 -0.05,-0.95 -0.15,-1.33 -0.1,-0.38 -0.27,-0.7 -0.51,-0.95 -0.24,-0.25 -0.55,-0.44 -0.94,-0.56 -0.39,-0.12 -0.88,-0.18 -1.45,-0.18 -0.76,0 -1.44,0.08 -2.03,0.25 -0.6,0.17 -1.12,0.36 -1.58,0.56 -0.46,0.21 -0.84,0.39 -1.15,0.56 -0.31,0.17 -0.56,0.25 -0.75,0.25 -0.13,0 -0.25,-0.04 -0.35,-0.13 -0.1,-0.08 -0.19,-0.21 -0.25,-0.36 -0.07,-0.16 -0.12,-0.35 -0.15,-0.58 -0.04,-0.23 -0.05,-0.48 -0.05,-0.76 0,-0.37 0.03,-0.67 0.09,-0.88 0.06,-0.22 0.17,-0.41 0.34,-0.59 0.17,-0.17 0.46,-0.37 0.89,-0.58 0.42,-0.21 0.92,-0.41 1.48,-0.59 0.57,-0.18 1.18,-0.33 1.85,-0.44 0.67,-0.11 1.36,-0.17 2.07,-0.17 1.26,0 2.35,0.12 3.24,0.37 0.9,0.25 1.64,0.63 2.21,1.14 0.58,0.51 1,1.17 1.26,1.98 0.26,0.81 0.4,1.76 0.4,2.87 v 10.84 z m 9.92,-3.55 c 0.28,0.44 0.77,0.66 1.48,0.66 0.24,0 0.46,-0.02 0.65,-0.06 0.19,-0.04 0.36,-0.09 0.51,-0.14 0.15,-0.05 0.28,-0.1 0.38,-0.14 0.1,-0.04 0.2,-0.06 0.28,-0.06 0.07,0 0.14,0.02 0.21,0.06 0.07,0.04 0.12,0.13 0.15,0.25 0.04,0.13 0.07,0.3 0.1,0.52 0.03,0.22 0.05,0.49 0.05,0.83 0,0.53 -0.03,0.94 -0.1,1.22 -0.07,0.28 -0.15,0.48 -0.26,0.6 -0.11,0.12 -0.27,0.22 -0.48,0.31 -0.21,0.09 -0.46,0.17 -0.74,0.24 -0.28,0.07 -0.59,0.12 -0.92,0.15 -0.33,0.04 -0.67,0.05 -1,0.05 -0.9,0 -1.69,-0.12 -2.35,-0.34 -0.66,-0.23 -1.21,-0.58 -1.64,-1.06 -0.43,-0.48 -0.75,-1.07 -0.96,-1.8 -0.21,-0.72 -0.31,-1.58 -0.31,-2.57 v -8.26 h -1.93 c -0.23,0 -0.4,-0.14 -0.52,-0.42 -0.12,-0.28 -0.18,-0.76 -0.18,-1.42 0,-0.35 0.02,-0.64 0.04,-0.89 0.03,-0.24 0.08,-0.43 0.14,-0.57 0.06,-0.14 0.14,-0.24 0.23,-0.3 0.09,-0.06 0.2,-0.09 0.32,-0.09 h 1.91 v -3.6 c 0,-0.12 0.03,-0.23 0.1,-0.32 0.07,-0.1 0.19,-0.18 0.36,-0.24 0.17,-0.07 0.41,-0.12 0.7,-0.14 0.3,-0.03 0.66,-0.04 1.09,-0.04 0.45,0 0.82,0.01 1.11,0.04 0.3,0.03 0.53,0.08 0.7,0.14 0.17,0.07 0.29,0.15 0.36,0.24 0.07,0.1 0.11,0.21 0.11,0.32 v 3.6 h 3.5 c 0.12,0 0.23,0.03 0.32,0.09 0.09,0.06 0.17,0.16 0.23,0.3 0.06,0.14 0.11,0.33 0.14,0.57 0.03,0.24 0.05,0.54 0.05,0.89 0,0.66 -0.06,1.14 -0.18,1.42 -0.12,0.28 -0.3,0.42 -0.52,0.42 h -3.52 v 7.57 c -0.02,0.87 0.11,1.53 0.39,1.97 z m 20.47,3.55 c 0,0.17 -0.06,0.3 -0.18,0.4 -0.12,0.1 -0.31,0.17 -0.57,0.21 -0.26,0.04 -0.64,0.06 -1.15,0.06 -0.54,0 -0.94,-0.02 -1.18,-0.06 -0.25,-0.04 -0.42,-0.11 -0.52,-0.21 -0.1,-0.1 -0.15,-0.23 -0.15,-0.4 v -1.28 c -0.66,0.71 -1.42,1.26 -2.27,1.66 -0.85,0.4 -1.79,0.6 -2.83,0.6 -0.86,0 -1.64,-0.11 -2.36,-0.33 -0.72,-0.22 -1.34,-0.55 -1.86,-0.99 -0.52,-0.44 -0.93,-0.98 -1.22,-1.63 -0.29,-0.65 -0.43,-1.41 -0.43,-2.28 0,-0.94 0.18,-1.75 0.55,-2.45 0.37,-0.69 0.92,-1.27 1.64,-1.72 0.73,-0.45 1.63,-0.79 2.72,-1 1.08,-0.22 2.34,-0.33 3.78,-0.33 h 1.57 v -0.97 c 0,-0.51 -0.05,-0.95 -0.15,-1.33 -0.1,-0.38 -0.27,-0.7 -0.51,-0.95 -0.24,-0.25 -0.55,-0.44 -0.94,-0.56 -0.39,-0.12 -0.88,-0.18 -1.45,-0.18 -0.76,0 -1.44,0.08 -2.03,0.25 -0.6,0.17 -1.12,0.36 -1.58,0.56 -0.46,0.21 -0.84,0.39 -1.15,0.56 -0.31,0.17 -0.56,0.25 -0.75,0.25 -0.13,0 -0.25,-0.04 -0.35,-0.13 -0.1,-0.08 -0.19,-0.21 -0.25,-0.36 -0.07,-0.16 -0.12,-0.35 -0.15,-0.58 -0.04,-0.23 -0.05,-0.48 -0.05,-0.76 0,-0.37 0.03,-0.67 0.09,-0.88 0.06,-0.22 0.17,-0.41 0.34,-0.59 0.17,-0.17 0.46,-0.37 0.89,-0.58 0.42,-0.21 0.92,-0.41 1.48,-0.59 0.57,-0.18 1.18,-0.33 1.85,-0.44 0.67,-0.11 1.36,-0.17 2.07,-0.17 1.26,0 2.35,0.12 3.24,0.37 0.9,0.25 1.64,0.63 2.21,1.14 0.58,0.51 1,1.17 1.26,1.98 0.26,0.81 0.4,1.76 0.4,2.87 v 10.84 z"
   id="path910" />
		</g>
		<g
   style="stroke-width:1.0015748;stroke-miterlimit:4;stroke-dasharray:none"
   id="Util">
			<path
   style="stroke-width:1.0015748;stroke-miterlimit:4;stroke-dasharray:none"
   class="st4"
   d="m 189.76,441.14 h -79.5 c -3.87,0 -7,3.13 -7,7 v 34 c 0,3.87 3.13,7 7,7 h 79.5 c 3.87,0 7,-3.13 7,-7 v -34 c 0,-3.86 -3.14,-7 -7,-7 z m -42.57,28.17 c 0,2.13 -0.31,4.04 -0.94,5.72 -0.63,1.68 -1.55,3.11 -2.77,4.27 -1.22,1.16 -2.72,2.05 -4.51,2.66 -1.79,0.61 -3.85,0.91 -6.18,0.91 -2.18,0 -4.15,-0.27 -5.88,-0.82 -1.74,-0.55 -3.21,-1.37 -4.4,-2.48 -1.2,-1.11 -2.12,-2.49 -2.75,-4.15 -0.64,-1.66 -0.95,-3.59 -0.95,-5.81 v -21.14 c 0,-0.18 0.05,-0.34 0.16,-0.48 0.11,-0.14 0.3,-0.26 0.58,-0.35 0.28,-0.09 0.64,-0.16 1.09,-0.21 0.45,-0.05 1.02,-0.08 1.72,-0.08 0.68,0 1.24,0.03 1.69,0.08 0.45,0.05 0.81,0.13 1.07,0.21 0.27,0.09 0.46,0.21 0.58,0.35 0.12,0.14 0.17,0.3 0.17,0.48 v 20.52 c 0,1.38 0.17,2.57 0.51,3.58 0.34,1.01 0.83,1.85 1.46,2.51 0.64,0.66 1.4,1.16 2.28,1.49 0.89,0.33 1.88,0.5 2.97,0.5 1.11,0 2.1,-0.17 2.98,-0.51 0.88,-0.34 1.62,-0.84 2.23,-1.49 0.61,-0.65 1.08,-1.46 1.41,-2.42 0.33,-0.96 0.5,-2.04 0.5,-3.26 v -20.92 c 0,-0.18 0.05,-0.34 0.16,-0.48 0.11,-0.14 0.3,-0.26 0.56,-0.35 0.27,-0.09 0.63,-0.16 1.09,-0.21 0.46,-0.05 1.02,-0.08 1.71,-0.08 0.68,0 1.24,0.03 1.68,0.08 0.44,0.05 0.79,0.13 1.06,0.21 0.27,0.09 0.46,0.21 0.56,0.35 0.11,0.14 0.16,0.3 0.16,0.48 z m 23.13,11.33 c 0,0.12 -0.04,0.23 -0.11,0.32 -0.07,0.09 -0.19,0.17 -0.36,0.23 -0.17,0.06 -0.4,0.11 -0.7,0.13 -0.3,0.03 -0.66,0.05 -1.09,0.05 -0.45,0 -0.82,-0.01 -1.11,-0.05 -0.3,-0.03 -0.53,-0.07 -0.7,-0.13 -0.17,-0.06 -0.29,-0.13 -0.36,-0.23 -0.07,-0.09 -0.11,-0.2 -0.11,-0.32 V 467.6 h -7.24 v 7.57 c 0,0.88 0.14,1.54 0.42,1.98 0.28,0.44 0.77,0.66 1.48,0.66 0.24,0 0.46,-0.02 0.65,-0.06 0.19,-0.04 0.36,-0.09 0.52,-0.14 0.15,-0.05 0.28,-0.1 0.38,-0.14 0.1,-0.04 0.2,-0.06 0.28,-0.06 0.07,0 0.14,0.02 0.21,0.06 0.07,0.04 0.12,0.13 0.15,0.25 0.04,0.13 0.07,0.3 0.1,0.52 0.03,0.22 0.04,0.49 0.04,0.83 0,0.53 -0.03,0.93 -0.09,1.2 -0.06,0.27 -0.14,0.47 -0.25,0.6 -0.11,0.13 -0.27,0.23 -0.49,0.32 -0.22,0.09 -0.47,0.17 -0.75,0.24 -0.28,0.07 -0.59,0.12 -0.92,0.15 -0.33,0.04 -0.67,0.05 -1,0.05 -0.9,0 -1.69,-0.12 -2.35,-0.34 -0.66,-0.23 -1.21,-0.58 -1.64,-1.06 -0.43,-0.48 -0.75,-1.07 -0.96,-1.8 -0.21,-0.72 -0.31,-1.58 -0.31,-2.57 v -8.26 h -1.93 c -0.23,0 -0.4,-0.14 -0.52,-0.42 -0.12,-0.28 -0.18,-0.76 -0.18,-1.42 0,-0.35 0.02,-0.64 0.05,-0.89 0.03,-0.24 0.07,-0.43 0.14,-0.57 0.06,-0.14 0.14,-0.24 0.23,-0.3 0.09,-0.06 0.2,-0.09 0.32,-0.09 H 154 v -3.6 c 0,-0.12 0.03,-0.23 0.1,-0.32 0.07,-0.1 0.19,-0.18 0.36,-0.24 0.17,-0.07 0.41,-0.12 0.71,-0.14 0.29,-0.03 0.66,-0.04 1.09,-0.04 0.45,0 0.82,0.01 1.11,0.04 0.29,0.03 0.53,0.08 0.7,0.14 0.17,0.07 0.29,0.15 0.36,0.24 0.07,0.1 0.11,0.21 0.11,0.32 v 3.6 h 10.42 c 0.51,0 0.86,0.11 1.06,0.33 0.2,0.22 0.3,0.53 0.3,0.94 z m -0.2,-19.68 c -0.37,0.35 -1.07,0.52 -2.08,0.52 -1.02,0 -1.71,-0.17 -2.07,-0.51 -0.36,-0.34 -0.53,-0.95 -0.53,-1.83 0,-0.91 0.18,-1.55 0.55,-1.91 0.37,-0.35 1.06,-0.53 2.09,-0.53 1.01,0 1.7,0.17 2.06,0.51 0.36,0.34 0.54,0.95 0.54,1.83 0,0.94 -0.19,1.57 -0.56,1.92 z m 12.09,19.68 c 0,0.12 -0.04,0.23 -0.11,0.32 -0.07,0.09 -0.2,0.17 -0.37,0.23 -0.17,0.06 -0.41,0.11 -0.7,0.13 -0.29,0.03 -0.66,0.05 -1.1,0.05 -0.45,0 -0.81,-0.01 -1.1,-0.05 -0.29,-0.03 -0.52,-0.07 -0.7,-0.13 -0.17,-0.06 -0.3,-0.13 -0.37,-0.23 -0.07,-0.09 -0.11,-0.2 -0.11,-0.32 v -23.76 c 0,-0.12 0.04,-0.23 0.11,-0.33 0.07,-0.1 0.2,-0.18 0.37,-0.24 0.17,-0.07 0.41,-0.12 0.7,-0.15 0.29,-0.04 0.66,-0.05 1.1,-0.05 0.45,0 0.81,0.02 1.1,0.05 0.29,0.04 0.52,0.09 0.7,0.15 0.17,0.07 0.3,0.15 0.37,0.24 0.07,0.1 0.11,0.21 0.11,0.33 z"
   id="path913" />
		</g>
		<g
   style="stroke-width:1.0015748;stroke-miterlimit:4;stroke-dasharray:none"
   id="SC_copy">
			<path
   style="stroke-width:1.0015748;stroke-miterlimit:4;stroke-dasharray:none"
   class="st4"
   d="m 189.76,441.14 h -79.5 c -3.87,0 -7,3.13 -7,7 v 34 c 0,3.87 3.13,7 7,7 h 79.5 c 3.87,0 7,-3.13 7,-7 v -34 c 0,-3.86 -3.14,-7 -7,-7 z m -49.19,35.5 c -0.68,1.38 -1.6,2.53 -2.77,3.45 -1.16,0.92 -2.52,1.62 -4.08,2.08 -1.56,0.46 -3.22,0.7 -5,0.7 -1.2,0 -2.31,-0.1 -3.34,-0.29 -1.03,-0.2 -1.94,-0.43 -2.73,-0.71 -0.79,-0.28 -1.45,-0.57 -1.97,-0.87 -0.53,-0.3 -0.91,-0.57 -1.14,-0.81 -0.23,-0.23 -0.4,-0.57 -0.5,-1.01 -0.1,-0.44 -0.15,-1.07 -0.15,-1.89 0,-0.55 0.02,-1.02 0.05,-1.4 0.04,-0.38 0.09,-0.68 0.17,-0.91 0.08,-0.23 0.19,-0.4 0.32,-0.5 0.13,-0.1 0.29,-0.15 0.47,-0.15 0.25,0 0.6,0.15 1.06,0.44 0.46,0.29 1.04,0.62 1.76,0.98 0.72,0.36 1.57,0.68 2.56,0.98 0.99,0.3 2.14,0.44 3.45,0.44 0.86,0 1.63,-0.1 2.31,-0.31 0.68,-0.21 1.26,-0.5 1.73,-0.87 0.47,-0.38 0.84,-0.84 1.09,-1.4 0.25,-0.55 0.38,-1.17 0.38,-1.85 0,-0.79 -0.21,-1.46 -0.64,-2.03 -0.43,-0.56 -0.99,-1.06 -1.68,-1.5 -0.69,-0.44 -1.47,-0.85 -2.35,-1.23 -0.88,-0.38 -1.78,-0.79 -2.71,-1.22 -0.93,-0.43 -1.84,-0.92 -2.71,-1.46 -0.88,-0.55 -1.66,-1.2 -2.35,-1.96 -0.69,-0.76 -1.25,-1.66 -1.68,-2.7 -0.43,-1.04 -0.64,-2.28 -0.64,-3.73 0,-1.66 0.31,-3.13 0.93,-4.39 0.62,-1.26 1.45,-2.31 2.5,-3.14 1.05,-0.83 2.28,-1.45 3.71,-1.87 1.42,-0.41 2.93,-0.62 4.53,-0.62 0.82,0 1.65,0.06 2.47,0.19 0.82,0.13 1.59,0.3 2.31,0.51 0.72,0.21 1.35,0.46 1.91,0.72 0.55,0.27 0.92,0.49 1.1,0.67 0.18,0.18 0.3,0.33 0.36,0.46 0.06,0.13 0.12,0.29 0.16,0.5 0.04,0.21 0.08,0.46 0.09,0.78 0.02,0.31 0.03,0.7 0.03,1.17 0,0.52 -0.01,0.96 -0.04,1.32 -0.03,0.36 -0.07,0.65 -0.13,0.89 -0.06,0.23 -0.15,0.4 -0.27,0.51 -0.12,0.11 -0.27,0.16 -0.47,0.16 -0.2,0 -0.51,-0.13 -0.94,-0.38 -0.43,-0.25 -0.96,-0.52 -1.58,-0.82 -0.63,-0.29 -1.35,-0.56 -2.18,-0.8 -0.82,-0.24 -1.73,-0.36 -2.71,-0.36 -0.77,0 -1.44,0.09 -2.01,0.28 -0.57,0.19 -1.05,0.45 -1.44,0.78 -0.38,0.33 -0.67,0.73 -0.86,1.2 -0.19,0.47 -0.28,0.96 -0.28,1.48 0,0.77 0.21,1.44 0.63,2 0.42,0.56 0.98,1.06 1.69,1.5 0.71,0.44 1.51,0.85 2.4,1.23 0.89,0.38 1.81,0.79 2.74,1.22 0.93,0.43 1.84,0.92 2.74,1.46 0.9,0.55 1.69,1.2 2.39,1.96 0.7,0.76 1.26,1.66 1.69,2.69 0.43,1.03 0.64,2.24 0.64,3.64 0,1.81 -0.34,3.41 -1.02,4.79 z m 41.41,1.49 c -0.03,0.31 -0.07,0.58 -0.12,0.81 -0.05,0.22 -0.13,0.42 -0.21,0.58 -0.09,0.16 -0.23,0.34 -0.43,0.55 -0.2,0.21 -0.58,0.47 -1.14,0.79 -0.56,0.32 -1.25,0.63 -2.07,0.93 -0.81,0.3 -1.75,0.54 -2.79,0.74 -1.05,0.2 -2.18,0.3 -3.4,0.3 -2.38,0 -4.53,-0.37 -6.45,-1.1 -1.92,-0.73 -3.54,-1.83 -4.89,-3.29 -1.34,-1.46 -2.37,-3.28 -3.09,-5.47 -0.72,-2.18 -1.07,-4.73 -1.07,-7.63 0,-2.95 0.39,-5.58 1.18,-7.87 0.79,-2.29 1.89,-4.22 3.3,-5.77 1.41,-1.56 3.11,-2.74 5.09,-3.54 1.98,-0.81 4.16,-1.21 6.54,-1.21 0.97,0 1.9,0.08 2.79,0.24 0.89,0.16 1.72,0.37 2.48,0.63 0.76,0.26 1.45,0.56 2.05,0.9 0.61,0.34 1.03,0.63 1.28,0.87 0.24,0.24 0.41,0.44 0.5,0.6 0.09,0.16 0.16,0.37 0.21,0.62 0.05,0.25 0.09,0.55 0.12,0.89 0.03,0.34 0.04,0.76 0.04,1.26 0,0.54 -0.02,0.99 -0.05,1.37 -0.04,0.38 -0.1,0.68 -0.19,0.91 -0.09,0.23 -0.2,0.4 -0.32,0.51 -0.13,0.11 -0.27,0.16 -0.43,0.16 -0.27,0 -0.61,-0.16 -1.02,-0.47 -0.41,-0.31 -0.94,-0.66 -1.6,-1.05 -0.65,-0.38 -1.43,-0.73 -2.34,-1.05 -0.9,-0.31 -1.98,-0.47 -3.24,-0.47 -1.38,0 -2.61,0.28 -3.69,0.85 -1.08,0.56 -2,1.37 -2.77,2.42 -0.76,1.05 -1.34,2.31 -1.73,3.8 -0.39,1.49 -0.59,3.16 -0.59,5.02 0,2.04 0.21,3.81 0.63,5.3 0.42,1.49 1.02,2.72 1.8,3.69 0.78,0.97 1.72,1.69 2.82,2.16 1.1,0.47 2.34,0.71 3.72,0.71 1.25,0 2.34,-0.15 3.25,-0.44 0.91,-0.3 1.7,-0.62 2.35,-0.98 0.65,-0.36 1.19,-0.68 1.61,-0.97 0.42,-0.29 0.75,-0.43 0.98,-0.43 0.18,0 0.32,0.04 0.43,0.11 0.11,0.07 0.2,0.21 0.27,0.43 0.07,0.21 0.13,0.51 0.16,0.9 0.04,0.39 0.05,0.9 0.05,1.54 0.02,0.45 0.01,0.83 -0.02,1.15 z"
   id="path916" />
		</g>
		<g
   style="stroke-width:1.0015748;stroke-miterlimit:4;stroke-dasharray:none"
   id="TA">
			<g
   style="stroke-width:1.0015748;stroke-miterlimit:4;stroke-dasharray:none"
   class="st5"
   id="g923">
				<g
   style="stroke-width:1.0015748;stroke-miterlimit:4;stroke-dasharray:none"
   id="g921">
					<path
   style="stroke-width:1.0015748;stroke-miterlimit:4;stroke-dasharray:none"
   class="st6"
   d="m 189.76,441.14 h -79.5 c -3.87,0 -7,3.13 -7,7 v 34 c 0,3.87 3.13,7 7,7 h 79.5 c 3.87,0 7,-3.13 7,-7 v -34 c 0,-3.86 -3.14,-7 -7,-7 z m -46.28,10.59 c -0.04,0.37 -0.11,0.66 -0.2,0.89 -0.09,0.22 -0.2,0.39 -0.34,0.5 -0.13,0.11 -0.28,0.16 -0.44,0.16 h -8.7 v 28.01 c 0,0.18 -0.06,0.34 -0.17,0.48 -0.12,0.14 -0.31,0.26 -0.58,0.35 -0.27,0.09 -0.63,0.16 -1.09,0.21 -0.46,0.05 -1.03,0.08 -1.71,0.08 -0.68,0 -1.25,-0.03 -1.71,-0.08 -0.46,-0.05 -0.82,-0.13 -1.09,-0.21 -0.27,-0.08 -0.46,-0.21 -0.58,-0.35 -0.12,-0.14 -0.17,-0.3 -0.17,-0.48 V 453.28 H 118 c -0.18,0 -0.33,-0.05 -0.46,-0.16 -0.13,-0.11 -0.23,-0.27 -0.32,-0.5 -0.09,-0.22 -0.16,-0.52 -0.2,-0.89 -0.04,-0.37 -0.07,-0.81 -0.07,-1.33 0,-0.54 0.02,-0.99 0.07,-1.37 0.04,-0.38 0.11,-0.68 0.2,-0.9 0.09,-0.22 0.2,-0.38 0.32,-0.48 0.13,-0.1 0.28,-0.15 0.46,-0.15 h 24.49 c 0.16,0 0.31,0.05 0.44,0.15 0.13,0.1 0.25,0.26 0.34,0.48 0.09,0.22 0.16,0.52 0.2,0.9 0.04,0.38 0.07,0.83 0.07,1.37 0.01,0.52 -0.01,0.96 -0.06,1.33 z m 39.51,30.26 c -0.2,0.19 -0.55,0.3 -1.05,0.35 -0.5,0.04 -1.19,0.07 -2.07,0.07 -0.91,0 -1.63,-0.01 -2.13,-0.04 -0.51,-0.03 -0.9,-0.08 -1.17,-0.16 -0.27,-0.08 -0.46,-0.19 -0.56,-0.34 -0.11,-0.14 -0.2,-0.33 -0.27,-0.56 l -2.34,-6.98 h -13.05 l -2.2,6.79 c -0.07,0.25 -0.17,0.46 -0.28,0.63 -0.12,0.17 -0.3,0.3 -0.56,0.4 -0.26,0.1 -0.63,0.16 -1.1,0.2 -0.47,0.04 -1.1,0.05 -1.87,0.05 -0.82,0 -1.47,-0.03 -1.93,-0.08 -0.47,-0.05 -0.79,-0.18 -0.97,-0.39 -0.18,-0.21 -0.24,-0.5 -0.19,-0.87 0.05,-0.38 0.19,-0.88 0.4,-1.5 l 10.72,-30.83 c 0.11,-0.3 0.23,-0.55 0.38,-0.74 0.14,-0.19 0.37,-0.33 0.68,-0.43 0.31,-0.1 0.75,-0.16 1.3,-0.19 0.55,-0.03 1.29,-0.04 2.2,-0.04 1.06,0 1.9,0.01 2.52,0.04 0.63,0.03 1.11,0.09 1.46,0.19 0.35,0.1 0.6,0.25 0.75,0.44 0.15,0.2 0.28,0.47 0.39,0.81 l 10.74,30.8 c 0.21,0.64 0.35,1.16 0.4,1.53 0.05,0.37 0,0.67 -0.2,0.85 z m -16.17,-27.86 -4.91,14.77 h 9.86 l -4.91,-14.77 z"
   id="path919" />
				</g>
			</g>
		</g>
		<g
   style="stroke-width:1.0015748;stroke-miterlimit:4;stroke-dasharray:none"
   id="TM_copy"
   class="st5">
			<path
   style="stroke-width:1.0015748;stroke-miterlimit:4;stroke-dasharray:none"
   class="st6"
   d="M 492.76,471.21 H 328.23 c -8,0 -14.49,6.48 -14.49,14.49 v 70.36 c 0,8 6.48,14.49 14.49,14.49 h 164.53 c 8,0 14.49,-6.49 14.49,-14.49 V 485.7 c -0.01,-8 -6.49,-14.49 -14.49,-14.49 z m -109.81,21.91 c -0.09,0.76 -0.23,1.37 -0.42,1.84 -0.19,0.46 -0.42,0.8 -0.69,1.03 -0.28,0.22 -0.58,0.33 -0.92,0.33 h -18.01 v 57.97 c 0,0.37 -0.12,0.7 -0.36,1 -0.24,0.3 -0.64,0.54 -1.2,0.72 -0.56,0.19 -1.3,0.33 -2.25,0.44 -0.94,0.11 -2.12,0.17 -3.53,0.17 -1.41,0 -2.59,-0.05 -3.53,-0.17 -0.95,-0.11 -1.7,-0.26 -2.25,-0.44 -0.55,-0.18 -0.95,-0.42 -1.19,-0.72 -0.24,-0.3 -0.36,-0.63 -0.36,-1 v -57.97 h -18.01 c -0.37,0 -0.69,-0.11 -0.95,-0.33 -0.26,-0.22 -0.48,-0.56 -0.67,-1.03 -0.19,-0.46 -0.33,-1.08 -0.42,-1.84 -0.09,-0.76 -0.14,-1.67 -0.14,-2.75 0,-1.11 0.05,-2.06 0.14,-2.84 0.09,-0.78 0.23,-1.4 0.42,-1.86 0.18,-0.46 0.41,-0.8 0.67,-1 0.26,-0.2 0.57,-0.31 0.95,-0.31 h 50.69 c 0.33,0 0.64,0.1 0.92,0.31 0.28,0.2 0.51,0.54 0.69,1 0.18,0.46 0.32,1.08 0.42,1.86 0.09,0.78 0.14,1.72 0.14,2.84 0,1.07 -0.04,1.99 -0.14,2.75 z m 103.84,61.16 c 0,0.37 -0.1,0.7 -0.31,1 -0.2,0.3 -0.57,0.54 -1.11,0.72 -0.54,0.19 -1.25,0.33 -2.14,0.44 -0.89,0.11 -2.02,0.17 -3.39,0.17 -1.33,0 -2.45,-0.05 -3.33,-0.17 -0.89,-0.11 -1.59,-0.26 -2.11,-0.44 -0.52,-0.18 -0.89,-0.42 -1.11,-0.72 -0.22,-0.3 -0.33,-0.63 -0.33,-1 v -58.52 h -0.11 L 452,554.23 c -0.15,0.48 -0.39,0.88 -0.72,1.2 -0.33,0.31 -0.79,0.57 -1.36,0.75 -0.57,0.18 -1.31,0.31 -2.2,0.36 -0.89,0.06 -1.96,0.08 -3.22,0.08 -1.26,0 -2.34,-0.05 -3.22,-0.14 -0.89,-0.09 -1.62,-0.24 -2.2,-0.44 -0.57,-0.2 -1.03,-0.45 -1.36,-0.75 -0.33,-0.3 -0.56,-0.65 -0.67,-1.06 l -20.12,-58.47 h -0.11 v 58.52 c 0,0.37 -0.1,0.7 -0.31,1 -0.2,0.3 -0.58,0.54 -1.14,0.72 -0.56,0.19 -1.27,0.33 -2.14,0.44 -0.87,0.11 -1.99,0.17 -3.36,0.17 -1.33,0 -2.45,-0.05 -3.34,-0.17 -0.89,-0.11 -1.6,-0.26 -2.14,-0.44 -0.54,-0.18 -0.91,-0.42 -1.11,-0.72 -0.2,-0.3 -0.3,-0.63 -0.3,-1 V 490.2 c 0,-1.89 0.5,-3.33 1.5,-4.33 1,-1 2.33,-1.5 4,-1.5 h 9.56 c 1.7,0 3.17,0.14 4.39,0.42 1.22,0.27 2.28,0.74 3.17,1.39 0.89,0.65 1.63,1.5 2.22,2.56 0.59,1.06 1.11,2.36 1.56,3.92 l 15.56,42.85 h 0.22 l 16.12,-42.74 c 0.48,-1.56 1.01,-2.87 1.58,-3.95 0.57,-1.07 1.24,-1.95 2,-2.61 0.76,-0.67 1.66,-1.14 2.7,-1.41 1.04,-0.28 2.24,-0.42 3.61,-0.42 h 9.84 c 1,0 1.86,0.13 2.58,0.39 0.72,0.26 1.31,0.64 1.78,1.14 0.46,0.5 0.81,1.11 1.05,1.83 0.24,0.72 0.36,1.55 0.36,2.47 v 64.07 z"
   id="path926" />
		</g>
	</g>
</g>
<g
   id="Favicon"
   class="st1"
   transform="translate(-235.12,-301.67604)">
	<g
   class="st5"
   id="g933">
		<path
   class="st0"
   d="m 435.01,365.37 c 0,37.42 -30.61,68.03 -68.03,68.03 h -90.71 c -37.42,0 -68.03,-30.61 -68.03,-68.03 v -90.71 c 0,-37.42 30.61,-68.03 68.03,-68.03 h 90.71 c 37.42,0 68.03,30.61 68.03,68.03 z"
   id="path931" />
	</g>
	<g
   id="path3749_1_"
   class="st5">
		<path
   class="st7"
   d="m 365.84,284.6 c 4.53,-18.71 -6.62,-18.74 -29.24,-18.78 -22.64,-0.06 -38.17,-0.1 -43.12,20.4 -3.74,15.44 0.85,16.06 37.65,17.62 41.44,1.87 79.23,-0.71 67.02,49.78 -10.19,42.18 -49.02,46.25 -93.93,46.15 -48.29,-0.1 -80.72,-0.19 -68.44,-50.99 l 42.56,0.11 c -4.79,22.56 0.65,25.26 32.05,25.34 25.33,0.05 40.04,0.68 45.21,-20.71 3.3,-13.66 3.94,-20.5 -38.8,-21.19 -64.97,-1.04 -74.92,-8.79 -65.3,-48.59 10.34,-42.78 45.68,-43.58 91.28,-43.48 34.78,0.08 76.18,0.76 65.63,44.43 z"
   id="path935" />
	</g>
</g>
</svg>
